<?xml version="1.0" encoding="utf-8"?>
<!-- Generator: Adobe Illustrator 16.0.4, SVG Export Plug-In . SVG Version: 6.00 Build 0)  -->
<!DOCTYPE svg PUBLIC "-//W3C//DTD SVG 1.1//EN" "http://www.w3.org/Graphics/SVG/1.1/DTD/svg11.dtd">
<svg version="1.1" id="Where_is_Rudi_x3F_" xmlns="http://www.w3.org/2000/svg" xmlns:xlink="http://www.w3.org/1999/xlink" x="0px"
	 y="0px" width="405px" height="405px" viewBox="0 0 405 405" enable-background="new 0 0 405 405" xml:space="preserve">
<g>
	<linearGradient id="SVGID_1_" gradientUnits="userSpaceOnUse" x1="9.5176" y1="207.5166" x2="395.4826" y2="207.5166">
		<stop  offset="0" style="stop-color:#159957"/>
		<stop  offset="0.0403" style="stop-color:#15945C"/>
		<stop  offset="0.2693" style="stop-color:#157977"/>
		<stop  offset="0.5035" style="stop-color:#15668A"/>
		<stop  offset="0.7439" style="stop-color:#155B95"/>
		<stop  offset="1" style="stop-color:#155799"/>
	</linearGradient>
	<polygon fill="url(#SVGID_1_)" points="19.518,341.407 19.518,73.626 109.257,73.626 109.257,63.626 9.518,63.626 9.518,351.407 
		82.94,351.407 82.94,341.407 	"/>
	<linearGradient id="SVGID_2_" gradientUnits="userSpaceOnUse" x1="9.5176" y1="207.5166" x2="395.4826" y2="207.5166">
		<stop  offset="0" style="stop-color:#159957"/>
		<stop  offset="0.0403" style="stop-color:#15945C"/>
		<stop  offset="0.2693" style="stop-color:#157977"/>
		<stop  offset="0.5035" style="stop-color:#15668A"/>
		<stop  offset="0.7439" style="stop-color:#155B95"/>
		<stop  offset="1" style="stop-color:#155799"/>
	</linearGradient>
	<polygon fill="url(#SVGID_2_)" points="395.482,63.626 295.743,63.626 295.743,73.626 385.482,73.626 385.482,341.407 
		318.551,341.407 318.551,351.407 395.482,351.407 	"/>
</g>
<linearGradient id="Rudi_1_" gradientUnits="userSpaceOnUse" x1="76.1963" y1="207.5166" x2="344.8037" y2="207.5166">
	<stop  offset="0" style="stop-color:#159957"/>
	<stop  offset="0.0403" style="stop-color:#15945C"/>
	<stop  offset="0.2693" style="stop-color:#157977"/>
	<stop  offset="0.5035" style="stop-color:#15668A"/>
	<stop  offset="0.7439" style="stop-color:#155B95"/>
	<stop  offset="1" style="stop-color:#155799"/>
</linearGradient>
<path id="Rudi" fill="url(#Rudi_1_)" d="M92.399,171.618c7.083,0.887,17.199-0.505,20.993,1.138
	c-0.38,5.312-0.38,10.117-0.126,11.254c0.506,2.024,1.264,1.14,5.564-0.251c1.138,5.817,2.023,15.426,2.15,32.244
	c-0.253,12.394,7.964,21.879,20.611,27.566c1.645,5.188,4.679,22.891-0.632,23.775c-3.414,0.631-4.3,1.645-3.793,2.908
	c1.644,3.795,9.989,2.023,10.116,2.023c1.897-0.506,2.277-1.771,2.908-4.807c0.507-2.275,3.288-11.127,5.311-17.197
	c1.897,2.783,3.794,5.438,4.806,6.703c2.528,3.414,4.426,13.529-2.149,14.922c-4.426,0.885-6.83,5.059,2.655,5.059
	c6.828,0,4.806,0.631,11.127-27.443c36.166,0.254,32.752-15.932,73.219-19.473c19.852-0.252,14.667,9.231,34.017,20.613
	c0,4.93-1.013,10.115-5.059,11.127c-8.095,2.15-5.438,6.195-2.277,6.195c8.094,0,7.841,1.771,15.175-13.15
	c2.403,3.793,2.655,18.715-4.172,19.096c-7.589,0.377-6.45,6.449-3.036,6.449c5.944,0,7.715,1.012,11.762-5.439
	c3.287-5.309,10.494-18.209,12.141-22.256c1.642-4.045-8.095-5.311-10.75-9.735c-2.656-4.553-0.761-14.796-0.253-27.19
	c13.784,12.016,18.21,9.486,32.877,11.635c10.877,1.645,19.222,4.427,19.222,2.277c0-2.402-23.521-7.461-34.521-9.105
	c-8.474-1.137-16.944-13.91-20.739-21.497l0,0c-6.827-9.104-27.314-10.874-85.23-9.104c-33.004,1.139-43.5,0.506-47.674-11.001
	c-2.403-6.577-9.611-26.557-12.646-29.591c-7.587-7.588-6.07-11.508-17.071-13.909c-9.863-2.151-20.105-0.38-23.773,7.334
	c-3.667,7.84-24.66,8.725-26.683,11.887C74.443,157.834,84.181,170.859,92.399,171.618z"/>
<g id="is_Rudi_x3F_">
	<path fill="#616060" d="M105.787,366.509c-4.793,0-6.914-2.75-6.914-6.679c0-1.492,0.313-3.143,0.942-5.186
		c1.965-5.499,6.992-14.613,9.9-18.698c1.178-1.572,2.121-1.729,3.143-0.551c1.492,1.571,2.121,4.95,0.078,8.879
		c-1.492,3.378-5.107,9.271-6.442,12.413c-0.707,1.808-1.101,3.457-1.101,4.714c0,1.258,0.314,1.965,1.18,1.965
		c3.143,0,7.228-5.265,9.663-10.606c0.628-1.415,1.649-1.258,2.356,0.156c0.707,1.336,0.629,3.3-0.393,5.343
		C115.844,363.209,110.423,366.509,105.787,366.509z M115.844,326.439c2.2,0,4.321,2.828,4.321,5.106
		c0,2.121-1.179,3.929-3.143,3.929c-2.515,0-4.636-2.357-4.636-4.793C112.387,328.481,114.036,326.439,115.844,326.439z"/>
	<path fill="#616060" d="M116.313,349.224c1.572-1.336,2.75-0.942,2.986,0.943c2.592-3.693,5.342-7.778,7.385-11.157
		c0.314-2.828,1.258-4.636,3.064-6.128c1.258-1.1,2.672-1.65,3.85-1.65c2.121,0,2.593,1.729,0.157,5.735
		c-0.079,0.943-0.157,2.279-0.157,3.3c0,5.579,1.021,10.686,0.864,14.929c-0.078,1.964-0.472,4.164-1.335,5.893
		c3.221-2.2,5.421-4.793,6.835-8.643c0.707-1.808,1.886-1.258,2.436,0c0.393,0.785,0.628,2.985-0.786,5.421
		c-2.985,5.5-8.484,8.485-14.377,8.721c-4.715,0.157-9.429-1.1-12.1-6.05c-0.864-1.492-1.336-3.378-1.336-5.186
		C113.8,352.995,114.585,350.717,116.313,349.224z M126.921,353.859c0-2.515-0.079-5.028-0.236-7.149
		c-1.885,2.985-4.085,6.363-6.442,9.742c0.942,3.692,2.593,6.442,4.321,6.442C126.214,362.895,126.921,358.966,126.921,353.859z"/>
	<path fill="#616060" d="M178.694,366.116c-4.871-6.443-8.643-11.472-11.785-15.007c-1.965,3.85-4.008,8.328-6.364,14.143
		c-0.55,1.492-1.414,1.649-2.593,0.471c-0.864-0.942-1.492-2.199-1.492-4.164c0-1.1,0.156-2.514,0.549-3.928
		c1.965-6.836,8.879-21.135,15.793-31.898c-2.593-0.472-3.693-1.571-4.636-3.222c-0.628-1.1-0.235-1.729,1.414-1.964
		c3.144-0.472,6.128-1.336,8.957-2.278c2.985-0.943,5.735-1.729,8.642-1.886c4.164-0.157,8.015,1.571,9.979,6.521
		c2.121,5.265,0.472,9.743-2.436,13.75c-4.007,5.421-12.1,10.214-20.663,12.413c2.829,3.379,5.5,7.149,6.993,10.057
		c0.707,1.336,1.1,2.829,1.1,4.086c0,0.942-0.314,1.886-0.786,2.671C180.501,367.216,179.637,367.373,178.694,366.116z
		 M179.401,325.261c-0.078,2.2-1.021,4.949-2.986,8.643c-2.121,3.928-4.085,7.228-5.499,9.663
		c15.714-4.007,23.413-14.377,21.37-19.562c-0.471-1.258-1.336-1.65-2.514-1.65c-1.808,0-4.793,1.021-7.307,1.886L179.401,325.261z"
		/>
	<path fill="#616060" d="M211.379,366.744c-4.637,0-6.992-2.278-7.307-5.813c-2.673,2.985-6.208,5.421-10.215,5.421
		s-5.578-2.985-5.578-6.364c0-1.729,0.313-3.535,1.021-5.421c1.729-4.95,5.735-12.807,10.606-19.642
		c1.021-1.336,2.436-1.179,3.378,0c0.865,1.1,1.18,2.436,1.18,3.613c0,3.222-5.736,12.336-8.485,18.386
		c-1.415,3.143-1.65,6.049,0.078,6.049c2.043,0,6.207-5.342,10.214-11.628c4.635-7.542,6.678-12.885,9.506-16.499
		c1.102-1.492,2.357-1.807,3.301-0.472c0.785,1.101,1.178,2.357,1.178,4.086c0,2.671-1.648,6.128-4.398,10.686
		c-2.279,3.692-5.344,9.035-5.344,12.099c0,1.415,0.473,2.2,1.494,2.2c2.592,0,6.6-5.421,9.428-10.371
		c0.785-1.335,2.121-1.571,2.75-0.078c0.314,0.707,0.629,2.985-0.551,5.264C221.357,362.737,216.25,366.744,211.379,366.744z"/>
	<path fill="#616060" d="M243.746,356.845c-0.941,2.043-1.414,3.771-1.414,5.028c0,1.179,0.314,1.729,1.021,1.729
		c2.75,0,6.6-5.186,9.271-10.371c0.785-1.492,1.807-1.414,2.514,0c0.393,0.707,0.707,2.907-0.314,5.107
		c-2.121,4.242-6.992,8.328-11.549,8.328c-3.85,0-6.443-1.336-7.07-4.793c-2.436,2.515-5.5,4.557-8.957,4.557
		c-4.557,0-7.072-3.378-7.072-8.014c0-3.3,1.414-7.621,4.164-11.628c6.129-8.878,12.65-12.57,16.736-12.57
		c2.67,0,4.398,1.1,5.027,3.143c3.928-7.386,9.035-16.264,11.629-19.956c1.414-1.965,2.514-1.808,3.299,0.078
		c0.393,0.942,0.707,1.964,0.707,3.064c0,2.121-1.021,5.186-3.064,8.878C254.117,338.067,247.439,349.066,243.746,356.845z
		 M242.332,339.01c-2.199-0.078-7.385,4.714-11.549,11.313c-2.357,3.693-3.613,7.621-3.613,10.214c0,1.415,0.312,2.436,1.178,2.436
		c2.514,0,6.285-4.399,9.82-11.234C242.412,343.646,243.826,339.089,242.332,339.01z"/>
	<path fill="#616060" d="M258.438,366.509c-4.793,0-6.914-2.75-6.914-6.679c0-1.492,0.314-3.143,0.943-5.186
		c1.963-5.499,6.992-14.613,9.898-18.698c1.18-1.572,2.121-1.729,3.143-0.551c1.494,1.571,2.121,4.95,0.078,8.879
		c-1.492,3.378-5.105,9.271-6.441,12.413c-0.707,1.808-1.1,3.457-1.1,4.714c0,1.258,0.314,1.965,1.178,1.965
		c3.143,0,7.229-5.265,9.664-10.606c0.629-1.415,1.65-1.258,2.357,0.156c0.707,1.336,0.629,3.3-0.393,5.343
		C268.494,363.209,263.072,366.509,258.438,366.509z M268.494,326.439c2.199,0,4.32,2.828,4.32,5.106
		c0,2.121-1.178,3.929-3.143,3.929c-2.514,0-4.635-2.357-4.635-4.793C265.037,328.481,266.688,326.439,268.494,326.439z"/>
	<path fill="#616060" d="M279.807,360.694c0.393,0.943,0.551,1.886,0.551,2.436c0,1.179-0.395,2.2-1.18,2.986
		c-1.414,1.492-4.164,1.335-5.656-1.179c-0.551-0.943-0.785-1.886-0.785-2.829c0-1.257,0.471-2.436,1.334-3.378
		C275.799,357.002,278.707,358.023,279.807,360.694z M283.264,323.847c3.064-4.95,8.014-8.093,12.807-8.093
		c1.965,0,3.928,0.55,5.578,1.571c2.75,1.886,4.479,5.028,4.479,8.564c0,2.121-0.551,4.635-1.729,7.149
		c-2.908,5.893-8.799,9.664-14.691,13.042c-4.951,2.828-7.465,7.149-8.408,10.999c-0.471,1.571-1.57,1.65-2.906,0.394
		c-0.707-0.707-1.492-2.2-1.492-4.007c0-0.943,0.156-2.2,0.785-3.693c1.492-3.221,4.242-5.813,10.135-9.271
		c4.322-2.515,8.486-6.6,10.764-11.471c0.785-1.729,1.414-4.007,1.414-5.893c0-2.043-0.863-3.143-2.277-3.143
		c-3.693,0-9.035,6.206-12.729,13.827c-1.021,1.886-1.887,1.886-2.986,0.236c-0.549-0.864-0.941-2.2-0.941-3.457
		C281.064,328.796,281.691,326.36,283.264,323.847z"/>
</g>
<g id="Where">
	<path fill="#616060" d="M147.303,79.146c0.937-4.37,3.199-11.315,5.229-17.56c-6.4,8.663-14.204,19.823-19.589,28.485
		c-0.781,1.249-2.029,1.795-3.59,0.547c-2.029-1.796-2.965-3.668-2.965-6.478c0-1.405,0.234-2.81,0.624-4.604
		c2.732-11.628,8.975-29.344,12.799-36.68c1.093-1.952,2.419-2.029,3.434-0.312c0.78,1.404,1.014,2.42,1.014,3.824
		c0,2.185-1.014,5.619-2.575,9.833c-2.575,6.868-4.136,10.067-7.024,19.823c7.102-10.927,16.857-23.96,23.725-32.231
		c0.858-1.015,2.107-1.405,3.2,0.155c0.937,1.249,1.483,2.42,1.483,4.137c0,1.404-0.39,3.278-1.405,6.243
		c-2.419,7.18-4.604,12.409-7.492,23.569c8.117-12.565,19.667-26.379,27.237-35.978c1.404-1.717,2.731-1.249,2.966,0.546
		c0.39,2.81-0.546,6.399-8.429,16.545c-6.165,7.961-15.218,19.589-22.397,30.67c-0.937,1.327-2.107,1.796-3.512,0.469
		c-1.873-1.873-3.2-4.058-3.2-6.867C146.834,82.112,146.99,80.708,147.303,79.146z"/>
	<path fill="#616060" d="M190.456,90.775c-5.151,0-7.492-2.575-7.492-6.634c0-4.917,3.824-11.707,6.79-16.311
		c1.482-2.575,2.653-4.449,2.107-4.449c-0.703,0-8.117,4.917-12.252,11.628c-2.653,4.372-5.463,9.756-7.336,14.438
		c-0.625,1.404-1.795,1.64-2.732,0.469c-1.249-1.482-2.341-3.356-0.39-8.507c3.122-8.194,18.574-34.338,24.896-42.455
		c1.249-1.562,2.419-1.249,3.122,0.312c0.39,0.858,0.625,1.874,0.625,2.966c0,2.107-0.937,4.995-2.81,8.273
		c-1.561,2.575-6.399,9.832-7.18,10.926c2.341-1.718,5.072-2.653,6.555-2.653c2.264,0,4.526,2.418,4.526,5.462
		c0,1.093-0.234,2.186-0.858,3.278c-4.292,7.648-6.243,10.926-7.102,12.799c-0.703,1.717-1.015,3.355-1.015,4.604
		c0,1.639,0.39,2.654,1.483,2.654c2.731,0,6.868-5.542,9.209-10.302c0.546-1.171,1.795-1.328,2.42,0
		c0.389,0.937,0.935,2.73-0.235,5.071C200.523,86.873,195.451,90.775,190.456,90.775z"/>
	<path fill="#616060" d="M253.355,82.503c-1.952,4.838-7.727,8.194-12.331,8.194c-4.917,0-7.648-3.434-7.648-8.039
		c0-1.248,0.235-2.653,0.781-4.292c1.325-4.215,4.369-8.507,7.492-12.175c-2.108,0.937-4.059,1.249-5.775,1.327
		c-6.399,13.345-14.75,22.866-24.271,23.022c-7.181,0.078-11.16-4.604-11.16-10.771c0-2.73,0.78-5.853,2.341-8.974
		c4.058-7.961,10.457-12.331,14.906-12.331c1.014,0,1.871,0.155,2.652,0.624c2.108,1.327,3.59,2.497,4.839,4.059
		c0.39,0.701,0.703,1.639,0.703,2.575c0,2.263-1.171,5.462-3.279,8.194c-2.263,2.81-5.229,4.761-8.662,4.761
		c-1.873,0-3.746-0.468-5.542-1.717c-0.468,1.56-0.7,3.199-0.7,4.604c0,3.59,1.403,5.931,3.59,5.931
		c7.803,0,15.919-11.238,20.056-20.759c-1.404-0.859-2.185-2.03-2.185-3.435c0-4.136,5.229-9.833,7.883-9.911
		c1.639,0,2.263,1.016,2.263,2.732c0,1.638-0.624,3.979-1.483,6.555c2.187-0.547,4.214-1.639,6.79-3.277
		c1.249-0.781,2.342-1.327,3.277-0.078c1.017,1.326,2.341,3.434,2.341,5.384c0,0.938-0.389,1.952-1.324,2.966
		c-3.357,3.902-7.181,9.21-8.587,13.189c-0.311,1.015-0.546,2.42-0.546,3.356c0,2.028,0.625,3.356,1.717,3.356
		c2.81,0,7.259-4.762,9.6-10.225c0.703-1.483,1.874-1.794,2.653-0.077C254.137,78.133,254.369,80.317,253.355,82.503z
		 M209.496,74.074c0.625,0.312,1.171,0.468,1.717,0.468c2.028,0,4.137-2.263,5.696-4.37c2.185-2.81,3.979-6.634,3.201-7.258
		c-1.406-1.093-6.713,3.434-9.913,9.755C209.808,73.372,209.65,73.684,209.496,74.074z"/>
	<path fill="#616060" d="M264.119,78.912c-1.873,0-3.744-0.546-5.539-1.717c-0.469,1.562-0.703,3.2-0.703,4.604
		c0,3.435,1.405,5.854,3.747,5.854c5.929,0,11.159-5.775,14.358-10.613c0.859-1.249,1.873-1.405,2.498,0.155
		c0.232,0.703,0.311,2.966-1.093,5.073c-3.279,4.761-9.521,8.429-15.609,8.507c-7.257,0.077-11.238-4.683-11.238-10.926
		c0-2.81,0.781-5.854,2.419-8.976c4.059-8.271,10.382-12.408,14.907-12.408c1.093,0,1.952,0.155,2.73,0.624
		c2.187,1.248,3.747,2.497,4.84,4.059c0.468,0.701,0.78,1.872,0.78,2.888C276.217,70.718,270.988,78.912,264.119,78.912z
		 M259.672,74.23c0.624,0.39,1.171,0.546,1.717,0.546c1.873,0,4.371-2.342,5.932-4.449c2.263-3.043,3.901-6.711,3.044-7.413
		C269.193,61.978,263.419,66.738,259.672,74.23z"/>
</g>
<g>
</g>
<g>
</g>
<g>
</g>
<g>
</g>
<g>
</g>
<g>
</g>
</svg>
